#!OML:ASF H:\Terrain\Patient Classification 1\Walking\steve\steve.ASF
:FULLY-SPECIFIED
:DEGREES
110
root 7.03258 14.98 -11.372 10.1524 -12.3727 -5.71019
lowerback -4.39025 8.71376 3.63999
upperback -4.47332 11.5019 -1.94148
thorax -1.10197 5.66508 -3.4974
lowerneck -12.1738 -3.17301 -2.37653
upperneck 13.7876 -4.57859 4.46645
head 6.35153 -1.979 1.39727
rclavicle -1.03948e-013 3.26007e-014
rhumerus 6.90584 10.2703 -72.9999
rradius 44.5241
rwrist -23.7232
rhand -20.8257 -38.703
rfingers 7.12502
rthumb 5.54265 -68.6105
lclavicle -1.03948e-013 3.26007e-014
lhumerus -84.9939 12.6878 -5.26185
lradius 10.7593
lwrist -44.4832
lhand -19.6191 -10.9385
lfingers 7.12502
lthumb 6.70748 18.9353
rfemur 17.5197 7.43162 24.4409
rtibia 22.4724
rfoot 20.2009 9.02917
rtoes -0.941893
lfemur -52.9524 6.32632 -13.675
ltibia 41.2553
lfoot -2.92818 4.16795
ltoes -3.44938
111
root 7.03461 14.9937 -11.1081 10.2711 -12.2755 -5.4282
lowerback -4.0568 8.76794 3.16753
upperback -4.69859 11.5983 -2.15378
thorax -1.55707 5.70946 -3.54021
lowerneck -12.0247 -3.38068 -2.72524
upperneck 13.5176 -4.84408 4.81996
head 6.26738 -2.10302 1.54458
rclavicle 2.11933e-013 -4.77083e-015
rhumerus 4.90674 8.94456 -73.7779
rradius 45.4636
rwrist -22.5605
rhand -20.0564 -38.0549
rfingers 7.12502
rthumb 6.28532 -67.9417
lclavicle 2.11933e-013 -4.77083e-015
lhumerus -84.5681 13.5197 -5.24892
lradius 10.9574
lwrist -43.7533
lhand -19.7421 -10.5396
lfingers 7.12502
lthumb 6.58879 19.338
rfemur 16.4519 7.67171 24.19
rtibia 24.2772
rfoot 22.4151 8.69809
rtoes -8.39371
lfemur -53.3742 6.79109 -14.6228
ltibia 43.1109
lfoot -2.73425 2.62278
ltoes -2.8678
112
root 7.05433 15.0195 -10.7584 9.35181 -12.6195 -3.20939
lowerback -4.4572 8.82106 1.30182
upperback -4.38764 11.6977 -2.85351
thorax -1.22107 5.80234 -3.17633
lowerneck -11.695 -3.45704 -2.93608
upperneck 13.1369 -4.94441 5.11346
head 6.10727 -2.14963 1.66862
rclavicle 6.91709e-015 3.18055e-014
rhumerus 3.40553 9.41543 -73.7789
rradius 46.1071
rwrist -23.2634
rhand -19.4132 -37.7603
rfingers 7.12502
rthumb 6.90627 -67.6277
lclavicle 6.91709e-015 3.18055e-014
lhumerus -83.8926 14.1652 -3.96769
lradius 11.1431
lwrist -41.7808
lhand -20.123 -9.02588
lfingers 7.12502
lthumb 6.22112 20.8628
rfemur 16.4699 7.63927 21.3206
rtibia 26.7252
rfoot 24.7385 7.80739
rtoes -7.74134
lfemur -52.2191 6.88172 -17.706
ltibia 44.6858
lfoot -3.4513 1.75234
ltoes -4.86289
113
root 7.06782 15.0374 -10.4567 9.04845 -12.7675 -2.10071
lowerback -4.50591 8.81915 0.244636
upperback -4.40149 11.7186 -3.2745
thorax -1.3266 5.82878 -3.04827
lowerneck -11.7372 -3.49774 -2.75837
upperneck 13.0739 -5.0091 4.9898
head 6.08964 -2.18201 1.59412
rclavicle -1.75396e-014 -5.56597e-015
rhumerus 1.85689 9.39409 -74.2784
rradius 46.6935
rwrist -23.3668
rhand -19.4529 -38.1115
rfingers 7.12502
rthumb 6.86794 -67.9801
lclavicle -1.75396e-014 -5.56597e-015
lhumerus -82.9363 14.4587 -1.02738
lradius 11.3472
lwrist -38.2272
lhand -20.8263 -8.38187
lfingers 7.12502
lthumb 5.54203 21.5257
rfemur 16.3465 8.10461 19.9211
rtibia 28.4415
rfoot 27.5125 3.92942
rtoes 0.0980833
lfemur -51.6068 6.93246 -19.4402
ltibia 45.9799
lfoot -4.40535 1.33721
ltoes -6.43023
114
root 7.06438 15.0654 -10.2745 9.9014 -12.813 -3.21153
lowerback -2.91346 8.85762 0.300316
upperback -5.46697 11.7529 -2.88073
thorax -3.38338 5.81733 -3.07907
lowerneck -11.8886 -3.56034 -2.73573
upperneck 13.542 -5.06567 4.66209
head 6.25647 -2.22541 1.47736
rclavicle -2.13197e-014 2.38542e-014
rhumerus -0.276897 9.43605 -74.7107
rradius 47.1485
rwrist -23.1304
rhand -20.2301 -38.815
rfingers 7.12502
rthumb 6.11769 -68.7067
lclavicle -2.13197e-014 2.38542e-014
lhumerus -82.2568 14.3358 1.48035
lradius 11.4629
lwrist -35.5315
lhand -21.2449 -9.61644
lfingers 7.12502
lthumb 5.13787 20.3013
rfemur 14.1633 9.49546 21.5699
rtibia 31.1032
rfoot 29.2289 -1.36884
rtoes 6.17276
lfemur -52.2747 7.23589 -18.4521
ltibia 46.9617
lfoot -4.68514 0.938747
ltoes -4.37594
115
root 7.10484 15.1123 -9.83394 7.62809 -13.1482 0.774655
lowerback -8.37917 8.54244 -4.79435
upperback -1.39707 11.8374 -1.73106
thorax 2.58009 5.85414 1.99814
lowerneck -12.7069 -3.67398 -4.29788
upperneck 11.4549 -4.64914 3.4545
head 5.72615 -2.19628 1.38249
rclavicle -1.08822e-013 -1.86858e-014
rhumerus 2.50255 10.7327 -71.0456
rradius 47.2144
rwrist -23.7664
rhand -20.5073 -39.2118
rfingers 7.12502
rthumb 5.85005 -69.111
lclavicle -1.08822e-013 -1.86858e-014
lhumerus -85.512 20.1296 -1.30946
lradius 11.1548
lwrist -40.2579
lhand -21.5518 -10.8543
lfingers 7.12502
lthumb 4.84155 19.0704
rfemur 15.5054 8.30803 16.2256
rtibia 33.6059
rfoot 30.645 -2.34796
rtoes 9.48263
lfemur -48.6662 6.75522 -23.2356
ltibia 47.636
lfoot -6.93404 0.0769079
ltoes -0.842606
116
root 7.10791 15.1603 -9.7234 8.80541 -13.6123 -0.880165
lowerback -3.40307 8.76848 -0.613844
upperback -4.46963 11.6424 -4.09144
thorax -2.00766 5.79434 -3.62253
lowerneck -11.9144 -3.34088 -2.52556
upperneck 12.5134 -4.82954 5.12253
head 5.93383 -2.07881 1.61358
rclavicle 2.67427e-014 2.8625e-014
rhumerus -1.6754 9.39282 -76.512
rradius 47.5358
rwrist -22.5186
rhand -20.5244 -38.7473
rfingers 7.12502
rthumb 5.83357 -68.647
lclavicle 2.67427e-014 2.8625e-014
lhumerus -81.5792 17.6632 2.81306
lradius 11.6869
lwrist -32.9147
lhand -21.5339 -10.4187
lfingers 7.12502
lthumb 4.85884 19.5056
rfemur 12.2856 10.202 18.7416
rtibia 36.791
rfoot 30.334 -6.31977
rtoes 10.7797
lfemur -49.5476 7.10171 -21.3452
ltibia 48.0933
lfoot -7.04163 0.39975
ltoes 0.912681
117
root 7.12941 15.1973 -9.47462 8.75266 -13.778 -0.677617
lowerback -2.99819 8.73199 -0.814695
upperback -4.7274 11.5789 -4.03432
thorax -2.55388 5.76063 -3.5642
lowerneck -11.2937 -3.24467 -2.69215
upperneck 12.4472 -4.63616 4.857
head 5.79632 -2.02361 1.58281
rclavicle -8.12222e-014 -1.19271e-014
rhumerus -3.68374 9.74267 -77.095
rradius 47.9007
rwrist -22.2737
rhand -20.246 -38.3427
rfingers 7.12502
rthumb 6.10229 -68.2348
lclavicle -8.12222e-014 -1.19271e-014
lhumerus -81.6291 18.6534 3.38745
lradius 11.7294
lwrist -32.6884
lhand -22.3904 -10.9255
lfingers 7.12502
lthumb 4.03179 19.0161
rfemur 10.8528 10.2554 18.3661
rtibia 39.371
rfoot 29.636 -5.80788
rtoes 5.99303
lfemur -48.6455 7.23902 -21.8663
ltibia 48.4268
lfoot -8.19795 0.0545207
ltoes 1.35698
118
root 7.15412 15.2323 -9.2185 8.37257 -13.7637 -0.10365
lowerback -2.84442 8.57676 -1.17968
upperback -4.43294 11.3777 -4.06269
thorax -2.40744 5.67049 -3.40397
lowerneck -11.8565 -3.12958 -2.51709
upperneck 12.7462 -4.42289 4.24927
head 5.95943 -1.94576 1.37271
rclavicle -3.14794e-014 -3.97569e-015
rhumerus -4.64031 9.71344 -77.8
rradius 47.8225
rwrist -21.8807
rhand -19.6624 -37.8426
rfingers 7.12502
rthumb 6.66571 -67.7177
lclavicle -3.14794e-014 -3.97569e-015
lhumerus -81.6719 20.5842 3.73781
lradius 11.6251
lwrist -32.8694
lhand -23.2216 -10.6615
lfingers 7.12502
lthumb 3.22906 19.2938
rfemur 9.41153 10.0927 17.6662
rtibia 42.5216
rfoot 27.3383 -4.00707
rtoes -0.0517597
lfemur -47.3832 7.21305 -22.7969
ltibia 48.7545
lfoot -9.46119 -0.212599
ltoes -0.353123
119
root 7.17177 15.2713 -8.97683 8.08798 -13.6756 0.377286
lowerback -2.82841 8.34622 -1.54474
upperback -4.05412 11.0841 -4.05734
thorax -2.10608 5.53433 -3.1789
lowerneck -12.7728 -3.00287 -2.36124
upperneck 13.1305 -4.21832 3.85382
head 6.21769 -1.85367 1.22745
rclavicle -1.62916e-013 7.95139e-016
rhumerus -5.55544 9.64061 -78.5489
rradius 47.7978
rwrist -21.2281
rhand -19.9423 -37.7148
rfingers 7.12502
rthumb 6.39551 -67.5983
lclavicle -1.62916e-013 7.95139e-016
lhumerus -81.7931 22.7469 4.18477
lradius 11.5753
lwrist -32.9618
lhand -23.7388 -10.0329
lfingers 7.12502
lthumb 2.72963 19.9294
rfemur 8.03273 9.8852 17.1518
rtibia 44.9938
rfoot 24.3409 -2.81581
rtoes -3.82311
lfemur -46.2201 7.13995 -23.5739
ltibia 48.9442
lfoot -10.5903 -0.346028
ltoes -2.23974
120
root 7.17755 15.3132 -8.77971 8.56474 -13.564 -0.692175
lowerback -2.45766 8.19139 -0.748064
upperback -4.44722 10.8606 -3.56051
thorax -2.67728 5.40314 -3.1976
lowerneck -12.2171 -2.84079 -2.5332
upperneck 13.1698 -3.95181 3.69784
head 6.12648 -1.7521 1.2373
rclavicle 2.49801e-014 -1.35174e-014
rhumerus -7.85208 9.95355 -79.2494
rradius 48.1699
rwrist -20.5383
rhand -20.5065 -37.9893
rfingers 7.12502
rthumb 5.85086 -67.8886
lclavicle 2.49801e-014 -1.35174e-014
lhumerus -81.6859 23.7526 5.98334
lradius 11.6909
lwrist -32.1564
lhand -24.0926 -10.8994
lfingers 7.12502
lthumb 2.38794 19.067
rfemur 5.7353 9.91737 18.4642
rtibia 47.4295
rfoot 20.9806 -2.19279
rtoes -6.84862
lfemur -45.955 7.16561 -22.5467
ltibia 49.126
lfoot -11.2061 -0.430603
ltoes -2.24109
121
root 7.19777 15.3752 -8.51493 8.1956 -13.5238 -0.087856
lowerback -2.55447 8.03723 -1.14185
upperback -4.23565 10.662 -3.61058
thorax -2.47446 5.3151 -3.00982
lowerneck -12.0684 -2.75237 -2.61696
upperneck 13.2321 -3.83483 3.78712
head 6.12038 -1.69379 1.29153
rclavicle 8.1129e-015 -9.54166e-015
rhumerus -9.57106 9.70711 -80.1072
rradius 48.4069
rwrist -20.099
rhand -18.8562 -37.7214
rfingers 7.12502
rthumb 7.44399 -67.5704
lclavicle 8.1129e-015 -9.54166e-015
lhumerus -80.9665 25.1731 8.43869
lradius 11.9044
lwrist -31.1005
lhand -23.9925 -11.9971
lfingers 7.12502
lthumb 2.48459 17.9682
rfemur 4.41063 9.33353 17.6642
rtibia 49.5765
rfoot 17.4694 -0.701836
rtoes -10.607
lfemur -44.4935 6.86594 -23.4295
ltibia 49.1148
lfoot -12.4893 -0.106245
ltoes -4.93116
